<?xml version="1.0" encoding="UTF-8"?>
<!DOCTYPE svg PUBLIC "-//W3C//DTD SVG 1.1//EN" "http://www.w3.org/Graphics/SVG/1.1/DTD/svg11.dtd">
<svg version="1.1" xmlns="http://www.w3.org/2000/svg" xmlns:xlink="http://www.w3.org/1999/xlink" x="0" y="0" width="595" height="280" viewBox="0, 0, 595, 280">
  <g id="Layer_1">
    <path d="M385.5,120.5 L400.5,90.5" fill-opacity="0" stroke="#175D7F" stroke-width="2"/>
    <path d="M415.5,120.5 L400.5,90.5" fill-opacity="0" stroke="#175D7F" stroke-width="2"/>
    <path d="M465.5,120.5 L480.5,90.5" fill-opacity="0" stroke="#175D7F" stroke-width="2"/>
    <path d="M495.5,120.5 L480.5,90.5" fill-opacity="0" stroke="#175D7F" stroke-width="2"/>
    <path d="M525.5,120.5 L540.5,90.5" fill-opacity="0" stroke="#175D7F" stroke-width="2"/>
    <path d="M555.5,120.5 L540.5,90.5" fill-opacity="0" stroke="#175D7F" stroke-width="2"/>
    <path d="M325.5,120.5 L340.5,90.5" fill-opacity="0" stroke="#175D7F" stroke-width="2"/>
    <path d="M355.5,120.5 L340.5,90.5" fill-opacity="0" stroke="#175D7F" stroke-width="2"/>
    <path d="M445.5,30.5 L510.5,60.5" fill-opacity="0" stroke="#175D7F" stroke-width="2"/>
    <path d="M510.5,60.5 L540.5,90.5" fill-opacity="0" stroke="#175D7F" stroke-width="2"/>
    <path d="M510.5,60.5 L480.5,90.5" fill-opacity="0" stroke="#175D7F" stroke-width="2"/>
    <path d="M445.5,30.5 L370.5,60.5" fill-opacity="0" stroke="#175D7F" stroke-width="2"/>
    <path d="M370.5,60.5 L340.5,90.5" fill-opacity="0" stroke="#175D7F" stroke-width="2"/>
    <path d="M370.5,60.5 L400.5,90.5" fill-opacity="0" stroke="#175D7F" stroke-width="2"/>
    <path d="M310.5,210.5 L320.5,180.5" fill-opacity="0" stroke="#175D7F" stroke-width="2"/>
    <path d="M340.5,210.5 L330.5,180.5" fill-opacity="0" stroke="#175D7F" stroke-width="2"/>
    <path d="M370.5,210.5 L380.5,180.5" fill-opacity="0" stroke="#175D7F" stroke-width="2"/>
    <path d="M400.5,210.5 L390.5,180.5" fill-opacity="0" stroke="#175D7F" stroke-width="2"/>
    <path d="M430.5,210.5 L440.5,180.5" fill-opacity="0" stroke="#175D7F" stroke-width="2"/>
    <path d="M460.5,210.5 L450.5,180.5" fill-opacity="0" stroke="#175D7F" stroke-width="2"/>
    <path d="M540.5,210.5 L550.5,180.5" fill-opacity="0" stroke="#175D7F" stroke-width="2"/>
    <path d="M570.5,210.5 L560.5,180.5" fill-opacity="0" stroke="#175D7F" stroke-width="2"/>
    <g>
      <path d="M105.5,15.5 L135.5,15.5 L135.5,45.5 L105.5,45.5 L105.5,15.5 z" fill="#9CD0EB"/>
      <path d="M105.5,15.5 L135.5,15.5 L135.5,45.5 L105.5,45.5 L105.5,15.5 z" fill-opacity="0" stroke="#175D7F" stroke-width="2"/>
    </g>
    <g>
      <path d="M90.5,45.5 L120.5,45.5 L120.5,75.5 L90.5,75.5 L90.5,45.5 z" fill="#9CD0EB"/>
      <path d="M90.5,45.5 L120.5,45.5 L120.5,75.5 L90.5,75.5 L90.5,45.5 z" fill-opacity="0" stroke="#175D7F" stroke-width="2"/>
    </g>
    <g>
      <path d="M120.5,45.5 L150.5,45.5 L150.5,75.5 L120.5,75.5 L120.5,45.5 z" fill="#9CD0EB"/>
      <path d="M120.5,45.5 L150.5,45.5 L150.5,75.5 L120.5,75.5 L120.5,45.5 z" fill-opacity="0" stroke="#175D7F" stroke-width="2"/>
    </g>
    <g>
      <path d="M75.5,75.5 L105.5,75.5 L105.5,105.5 L75.5,105.5 L75.5,75.5 z" fill="#9CD0EB"/>
      <path d="M75.5,75.5 L105.5,75.5 L105.5,105.5 L75.5,105.5 L75.5,75.5 z" fill-opacity="0" stroke="#175D7F" stroke-width="2"/>
    </g>
    <g>
      <path d="M105.5,75.5 L135.5,75.5 L135.5,105.5 L105.5,105.5 L105.5,75.5 z" fill="#9CD0EB"/>
      <path d="M105.5,75.5 L135.5,75.5 L135.5,105.5 L105.5,105.5 L105.5,75.5 z" fill-opacity="0" stroke="#175D7F" stroke-width="2"/>
    </g>
    <g>
      <path d="M135.5,75.5 L165.5,75.5 L165.5,105.5 L135.5,105.5 L135.5,75.5 z" fill="#9CD0EB"/>
      <path d="M135.5,75.5 L165.5,75.5 L165.5,105.5 L135.5,105.5 L135.5,75.5 z" fill-opacity="0" stroke="#175D7F" stroke-width="2"/>
    </g>
    <g>
      <path d="M45.5,195.5 L75.5,195.5 L75.5,225.5 L45.5,225.5 L45.5,195.5 z" fill="#9CD0EB"/>
      <path d="M45.5,195.5 L75.5,195.5 L75.5,225.5 L45.5,225.5 L45.5,195.5 z" fill-opacity="0" stroke="#175D7F" stroke-width="2"/>
    </g>
    <g>
      <path d="M75.5,195.5 L105.5,195.5 L105.5,225.5 L75.5,225.5 L75.5,195.5 z" fill="#9CD0EB"/>
      <path d="M75.5,195.5 L105.5,195.5 L105.5,225.5 L75.5,225.5 L75.5,195.5 z" fill-opacity="0" stroke="#175D7F" stroke-width="2"/>
    </g>
    <g>
      <path d="M165.5,195.5 L195.5,195.5 L195.5,225.5 L165.5,225.5 L165.5,195.5 z" fill="#9CD0EB"/>
      <path d="M165.5,195.5 L195.5,195.5 L195.5,225.5 L165.5,225.5 L165.5,195.5 z" fill-opacity="0" stroke="#175D7F" stroke-width="2"/>
    </g>
    <g>
      <path d="M195.5,195.5 L225.5,195.5 L225.5,225.5 L195.5,225.5 L195.5,195.5 z" fill="#9CD0EB"/>
      <path d="M195.5,195.5 L225.5,195.5 L225.5,225.5 L195.5,225.5 L195.5,195.5 z" fill-opacity="0" stroke="#175D7F" stroke-width="2"/>
    </g>
    <g>
      <path d="M15.5,195.5 L45.5,195.5 L45.5,225.5 L15.5,225.5 L15.5,195.5 z" fill="#9CD0EB"/>
      <path d="M15.5,195.5 L45.5,195.5 L45.5,225.5 L15.5,225.5 L15.5,195.5 z" fill-opacity="0" stroke="#175D7F" stroke-width="2"/>
    </g>
    <text transform="matrix(1, 0, 0, 1, 60, 210)">
      <tspan x="-8.032" y="9" font-family="Roboto-Bold" font-size="28" fill="#115C81">6</tspan>
    </text>
    <text transform="matrix(1, 0, 0, 1, 120.371, 30)">
      <tspan x="-8.032" y="9" font-family="Roboto-Bold" font-size="28" fill="#115C81">7</tspan>
    </text>
    <text transform="matrix(1, 0, 0, 1, 150, 90)">
      <tspan x="-8.032" y="9" font-family="Roboto-Bold" font-size="28" fill="#115C81">1</tspan>
    </text>
    <text transform="matrix(1, 0, 0, 1, 105, 60)">
      <tspan x="-8.032" y="9" font-family="Roboto-Bold" font-size="28" fill="#115C81">2</tspan>
    </text>
    <text transform="matrix(1, 0, 0, 1, 135, 60)">
      <tspan x="-8.032" y="9" font-family="Roboto-Bold" font-size="28" fill="#115C81">3</tspan>
    </text>
    <text transform="matrix(1, 0, 0, 1, 120, 90)">
      <tspan x="-8.032" y="9" font-family="Roboto-Bold" font-size="28" fill="#115C81">3</tspan>
    </text>
    <text transform="matrix(1, 0, 0, 1, 90, 90)">
      <tspan x="-8.032" y="9" font-family="Roboto-Bold" font-size="28" fill="#115C81">3</tspan>
    </text>
    <text transform="matrix(1, 0, 0, 1, 30, 210)">
      <tspan x="-8.032" y="9" font-family="Roboto-Bold" font-size="28" fill="#115C81">5</tspan>
    </text>
    <text transform="matrix(1, 0, 0, 1, 90, 210)">
      <tspan x="-8.032" y="9" font-family="Roboto-Bold" font-size="28" fill="#115C81">4</tspan>
    </text>
    <text transform="matrix(1, 0, 0, 1, 180, 210)">
      <tspan x="-8.032" y="9" font-family="Roboto-Bold" font-size="28" fill="#115C81">4</tspan>
    </text>
    <text transform="matrix(1, 0, 0, 1, 210, 210)">
      <tspan x="-8.032" y="9" font-family="Roboto-Bold" font-size="28" fill="#115C81">3</tspan>
    </text>
    <g>
      <path d="M445.5,40.5 C439.977,40.5 435.5,36.023 435.5,30.5 C435.5,24.977 439.977,20.5 445.5,20.5 C451.023,20.5 455.5,24.977 455.5,30.5 C455.5,36.023 451.023,40.5 445.5,40.5 z" fill="#9CD0EB"/>
      <path d="M445.5,40.5 C439.977,40.5 435.5,36.023 435.5,30.5 C435.5,24.977 439.977,20.5 445.5,20.5 C451.023,20.5 455.5,24.977 455.5,30.5 C455.5,36.023 451.023,40.5 445.5,40.5 z" fill-opacity="0" stroke="#175D7F" stroke-width="2"/>
    </g>
    <g>
      <path d="M310.5,220.5 C304.977,220.5 300.5,216.023 300.5,210.5 C300.5,204.977 304.977,200.5 310.5,200.5 C316.023,200.5 320.5,204.977 320.5,210.5 C320.5,216.023 316.023,220.5 310.5,220.5 z" fill="#9CD0EB"/>
      <path d="M310.5,220.5 C304.977,220.5 300.5,216.023 300.5,210.5 C300.5,204.977 304.977,200.5 310.5,200.5 C316.023,200.5 320.5,204.977 320.5,210.5 C320.5,216.023 316.023,220.5 310.5,220.5 z" fill-opacity="0" stroke="#175D7F" stroke-width="2"/>
    </g>
    <g>
      <path d="M340.5,220.5 C334.977,220.5 330.5,216.023 330.5,210.5 C330.5,204.977 334.977,200.5 340.5,200.5 C346.023,200.5 350.5,204.977 350.5,210.5 C350.5,216.023 346.023,220.5 340.5,220.5 z" fill="#9CD0EB"/>
      <path d="M340.5,220.5 C334.977,220.5 330.5,216.023 330.5,210.5 C330.5,204.977 334.977,200.5 340.5,200.5 C346.023,200.5 350.5,204.977 350.5,210.5 C350.5,216.023 346.023,220.5 340.5,220.5 z" fill-opacity="0" stroke="#175D7F" stroke-width="2"/>
    </g>
    <g>
      <path d="M370.5,220.5 C364.977,220.5 360.5,216.023 360.5,210.5 C360.5,204.977 364.977,200.5 370.5,200.5 C376.023,200.5 380.5,204.977 380.5,210.5 C380.5,216.023 376.023,220.5 370.5,220.5 z" fill="#9CD0EB"/>
      <path d="M370.5,220.5 C364.977,220.5 360.5,216.023 360.5,210.5 C360.5,204.977 364.977,200.5 370.5,200.5 C376.023,200.5 380.5,204.977 380.5,210.5 C380.5,216.023 376.023,220.5 370.5,220.5 z" fill-opacity="0" stroke="#175D7F" stroke-width="2"/>
    </g>
    <g>
      <path d="M400.5,220.5 C394.977,220.5 390.5,216.023 390.5,210.5 C390.5,204.977 394.977,200.5 400.5,200.5 C406.023,200.5 410.5,204.977 410.5,210.5 C410.5,216.023 406.023,220.5 400.5,220.5 z" fill="#9CD0EB"/>
      <path d="M400.5,220.5 C394.977,220.5 390.5,216.023 390.5,210.5 C390.5,204.977 394.977,200.5 400.5,200.5 C406.023,200.5 410.5,204.977 410.5,210.5 C410.5,216.023 406.023,220.5 400.5,220.5 z" fill-opacity="0" stroke="#175D7F" stroke-width="2"/>
    </g>
    <g>
      <path d="M430.5,220.5 C424.977,220.5 420.5,216.023 420.5,210.5 C420.5,204.977 424.977,200.5 430.5,200.5 C436.023,200.5 440.5,204.977 440.5,210.5 C440.5,216.023 436.023,220.5 430.5,220.5 z" fill="#9CD0EB"/>
      <path d="M430.5,220.5 C424.977,220.5 420.5,216.023 420.5,210.5 C420.5,204.977 424.977,200.5 430.5,200.5 C436.023,200.5 440.5,204.977 440.5,210.5 C440.5,216.023 436.023,220.5 430.5,220.5 z" fill-opacity="0" stroke="#175D7F" stroke-width="2"/>
    </g>
    <g>
      <path d="M460.5,220.5 C454.977,220.5 450.5,216.023 450.5,210.5 C450.5,204.977 454.977,200.5 460.5,200.5 C466.023,200.5 470.5,204.977 470.5,210.5 C470.5,216.023 466.023,220.5 460.5,220.5 z" fill="#9CD0EB"/>
      <path d="M460.5,220.5 C454.977,220.5 450.5,216.023 450.5,210.5 C450.5,204.977 454.977,200.5 460.5,200.5 C466.023,200.5 470.5,204.977 470.5,210.5 C470.5,216.023 466.023,220.5 460.5,220.5 z" fill-opacity="0" stroke="#175D7F" stroke-width="2"/>
    </g>
    <g>
      <path d="M540.5,220.5 C534.977,220.5 530.5,216.023 530.5,210.5 C530.5,204.977 534.977,200.5 540.5,200.5 C546.023,200.5 550.5,204.977 550.5,210.5 C550.5,216.023 546.023,220.5 540.5,220.5 z" fill="#9CD0EB"/>
      <path d="M540.5,220.5 C534.977,220.5 530.5,216.023 530.5,210.5 C530.5,204.977 534.977,200.5 540.5,200.5 C546.023,200.5 550.5,204.977 550.5,210.5 C550.5,216.023 546.023,220.5 540.5,220.5 z" fill-opacity="0" stroke="#175D7F" stroke-width="2"/>
    </g>
    <g>
      <path d="M570.5,220.5 C564.977,220.5 560.5,216.023 560.5,210.5 C560.5,204.977 564.977,200.5 570.5,200.5 C576.023,200.5 580.5,204.977 580.5,210.5 C580.5,216.023 576.023,220.5 570.5,220.5 z" fill="#9CD0EB"/>
      <path d="M570.5,220.5 C564.977,220.5 560.5,216.023 560.5,210.5 C560.5,204.977 564.977,200.5 570.5,200.5 C576.023,200.5 580.5,204.977 580.5,210.5 C580.5,216.023 576.023,220.5 570.5,220.5 z" fill-opacity="0" stroke="#175D7F" stroke-width="2"/>
    </g>
    <text transform="matrix(1, 0, 0, 1, 135.371, 210)">
      <tspan x="-20.371" y="9" font-family="Roboto-Bold" font-size="28" fill="#115C81">.....</tspan>
    </text>
    <text transform="matrix(1, 0, 0, 1, 500.371, 207)">
      <tspan x="-20.371" y="9" font-family="Roboto-Bold" font-size="28" fill="#115C81">.....</tspan>
    </text>
    <text transform="matrix(1, 0, 0, 1, 120.371, 120)">
      <tspan x="-20.371" y="9" font-family="Roboto-Bold" font-size="28" fill="#115C81">.....</tspan>
    </text>
    <text transform="matrix(1, 0, 0, 1, 75.371, 150)">
      <tspan x="-20.371" y="9" font-family="Roboto-Bold" font-size="28" fill="#115C81">.....</tspan>
    </text>
    <text transform="matrix(1, 0, 0, 1, 165.371, 150)">
      <tspan x="-20.371" y="9" font-family="Roboto-Bold" font-size="28" fill="#115C81">.....</tspan>
    </text>
    <path d="M135.5,15.5 L441.855,15.5" fill-opacity="0" stroke="#175D7F" stroke-width="2"/>
    <path d="M225.5,225.5 L300.5,225.5" fill-opacity="0" stroke="#175D7F" stroke-width="2"/>
    <g>
      <path d="M268,27.3 L268,213.7" fill-opacity="0" stroke="#175D7F" stroke-width="2"/>
      <path d="M271.6,27.3 L268,17.7 L264.4,27.3 M268,27.3 L268,17.7" fill-opacity="0" stroke="#175D7F" stroke-width="2" stroke-opacity="1"/>
      <path d="M264.4,213.7 L268,223.3 L271.6,213.7 M268,213.7 L268,223.3" fill-opacity="0" stroke="#175D7F" stroke-width="2" stroke-opacity="1"/>
    </g>
    <path d="M15.5,222.5 L15.5,250.5" fill-opacity="0" stroke="#175D7F" stroke-width="2"/>
    <path d="M225.5,225.5 L225.5,253.5" fill-opacity="0" stroke="#175D7F" stroke-width="2"/>
    <g>
      <path d="M27.3,243.5 L213.7,243.5" fill-opacity="0" stroke="#175D7F" stroke-width="2"/>
      <path d="M27.3,239.9 L17.7,243.5 L27.3,247.1 M27.3,243.5 L17.7,243.5" fill-opacity="0" stroke="#175D7F" stroke-width="2" stroke-opacity="1"/>
      <path d="M213.7,247.1 L223.3,243.5 L213.7,239.9 M213.7,243.5 L223.3,243.5" fill-opacity="0" stroke="#175D7F" stroke-width="2" stroke-opacity="1"/>
    </g>
    <g>
      <path d="M312.3,240.5 L568.7,240.5" fill-opacity="0" stroke="#175D7F" stroke-width="2"/>
      <path d="M312.3,236.9 L302.7,240.5 L312.3,244.1 M312.3,240.5 L302.7,240.5" fill-opacity="0" stroke="#175D7F" stroke-width="2" stroke-opacity="1"/>
      <path d="M568.7,244.1 L578.3,240.5 L568.7,236.9 M568.7,240.5 L578.3,240.5" fill-opacity="0" stroke="#175D7F" stroke-width="2" stroke-opacity="1"/>
    </g>
    <path d="M300.5,210.5 L300.5,250.5" fill-opacity="0" stroke="#175D7F" stroke-width="2"/>
    <path d="M580.5,210.5 L580.5,250.5" fill-opacity="0" stroke="#175D7F" stroke-width="2"/>
    <g>
      <path d="M340.5,100.5 C334.977,100.5 330.5,96.023 330.5,90.5 C330.5,84.977 334.977,80.5 340.5,80.5 C346.023,80.5 350.5,84.977 350.5,90.5 C350.5,96.023 346.023,100.5 340.5,100.5 z" fill="#9CD0EB"/>
      <path d="M340.5,100.5 C334.977,100.5 330.5,96.023 330.5,90.5 C330.5,84.977 334.977,80.5 340.5,80.5 C346.023,80.5 350.5,84.977 350.5,90.5 C350.5,96.023 346.023,100.5 340.5,100.5 z" fill-opacity="0" stroke="#175D7F" stroke-width="2"/>
    </g>
    <g>
      <path d="M400.5,100.5 C394.977,100.5 390.5,96.023 390.5,90.5 C390.5,84.977 394.977,80.5 400.5,80.5 C406.023,80.5 410.5,84.977 410.5,90.5 C410.5,96.023 406.023,100.5 400.5,100.5 z" fill="#9CD0EB"/>
      <path d="M400.5,100.5 C394.977,100.5 390.5,96.023 390.5,90.5 C390.5,84.977 394.977,80.5 400.5,80.5 C406.023,80.5 410.5,84.977 410.5,90.5 C410.5,96.023 406.023,100.5 400.5,100.5 z" fill-opacity="0" stroke="#175D7F" stroke-width="2"/>
    </g>
    <g>
      <path d="M480.5,100.5 C474.977,100.5 470.5,96.023 470.5,90.5 C470.5,84.977 474.977,80.5 480.5,80.5 C486.023,80.5 490.5,84.977 490.5,90.5 C490.5,96.023 486.023,100.5 480.5,100.5 z" fill="#9CD0EB"/>
      <path d="M480.5,100.5 C474.977,100.5 470.5,96.023 470.5,90.5 C470.5,84.977 474.977,80.5 480.5,80.5 C486.023,80.5 490.5,84.977 490.5,90.5 C490.5,96.023 486.023,100.5 480.5,100.5 z" fill-opacity="0" stroke="#175D7F" stroke-width="2"/>
    </g>
    <g>
      <path d="M540.5,100.5 C534.977,100.5 530.5,96.023 530.5,90.5 C530.5,84.977 534.977,80.5 540.5,80.5 C546.023,80.5 550.5,84.977 550.5,90.5 C550.5,96.023 546.023,100.5 540.5,100.5 z" fill="#9CD0EB"/>
      <path d="M540.5,100.5 C534.977,100.5 530.5,96.023 530.5,90.5 C530.5,84.977 534.977,80.5 540.5,80.5 C546.023,80.5 550.5,84.977 550.5,90.5 C550.5,96.023 546.023,100.5 540.5,100.5 z" fill-opacity="0" stroke="#175D7F" stroke-width="2"/>
    </g>
    <g>
      <path d="M511.242,70.5 C505.719,70.5 501.242,66.023 501.242,60.5 C501.242,54.977 505.719,50.5 511.242,50.5 C516.765,50.5 521.242,54.977 521.242,60.5 C521.242,66.023 516.765,70.5 511.242,70.5 z" fill="#9CD0EB"/>
      <path d="M511.242,70.5 C505.719,70.5 501.242,66.023 501.242,60.5 C501.242,54.977 505.719,50.5 511.242,50.5 C516.765,50.5 521.242,54.977 521.242,60.5 C521.242,66.023 516.765,70.5 511.242,70.5 z" fill-opacity="0" stroke="#175D7F" stroke-width="2"/>
    </g>
    <g>
      <path d="M370.5,70.5 C364.977,70.5 360.5,66.023 360.5,60.5 C360.5,54.977 364.977,50.5 370.5,50.5 C376.023,50.5 380.5,54.977 380.5,60.5 C380.5,66.023 376.023,70.5 370.5,70.5 z" fill="#9CD0EB"/>
      <path d="M370.5,70.5 C364.977,70.5 360.5,66.023 360.5,60.5 C360.5,54.977 364.977,50.5 370.5,50.5 C376.023,50.5 380.5,54.977 380.5,60.5 C380.5,66.023 376.023,70.5 370.5,70.5 z" fill-opacity="0" stroke="#175D7F" stroke-width="2"/>
    </g>
    <text transform="matrix(1, 0, 0, 1, 445.371, 135)">
      <tspan x="-20.371" y="9" font-family="Roboto-Bold" font-size="28" fill="#115C81">.....</tspan>
    </text>
    <text transform="matrix(1, 0, 0, 1, 400.371, 165)">
      <tspan x="-20.371" y="9" font-family="Roboto-Bold" font-size="28" fill="#115C81">.....</tspan>
    </text>
    <text transform="matrix(1, 0, 0, 1, 490.371, 165)">
      <tspan x="-20.371" y="9" font-family="Roboto-Bold" font-size="28" fill="#115C81">.....</tspan>
    </text>
    <text transform="matrix(1, 0, 0, 1, 405.984, 34.5)">
      <tspan x="-4.016" y="4.5" font-family="Roboto-Bold" font-size="14" fill="#115C81">2</tspan>
    </text>
    <text transform="matrix(1, 0, 0, 1, 482.339, 34.5)">
      <tspan x="-4.016" y="4.5" font-family="Roboto-Bold" font-size="14" fill="#115C81">3</tspan>
    </text>
    <text transform="matrix(1, 0, 0, 1, 350.984, 68.5)">
      <tspan x="-4.016" y="4.5" font-family="Roboto-Bold" font-size="14" fill="#115C81">3</tspan>
    </text>
    <text transform="matrix(1, 0, 0, 1, 389.016, 68.5)">
      <tspan x="-4.016" y="4.5" font-family="Roboto-Bold" font-size="14" fill="#115C81">3</tspan>
    </text>
    <text transform="matrix(1, 0, 0, 1, 490.371, 68.5)">
      <tspan x="-4.016" y="4.5" font-family="Roboto-Bold" font-size="14" fill="#115C81">3</tspan>
    </text>
    <text transform="matrix(1, 0, 0, 1, 529.016, 68.5)">
      <tspan x="-4.016" y="4.5" font-family="Roboto-Bold" font-size="14" fill="#115C81">1</tspan>
    </text>
    <text transform="matrix(1, 0, 0, 1, 445.371, 30)">
      <tspan x="-4.016" y="4.5" font-family="Roboto-Bold" font-size="14" fill="#115C81">7</tspan>
    </text>
    <text transform="matrix(1, 0, 0, 1, 370, 60)">
      <tspan x="-4.016" y="4.5" font-family="Roboto-Bold" font-size="14" fill="#115C81">9</tspan>
    </text>
    <text transform="matrix(1, 0, 0, 1, 340, 90.667)">
      <tspan x="-8.032" y="4.5" font-family="Roboto-Bold" font-size="14" fill="#115C81">12</tspan>
    </text>
    <text transform="matrix(1, 0, 0, 1, 400.371, 90)">
      <tspan x="-8.032" y="4.5" font-family="Roboto-Bold" font-size="14" fill="#115C81">12</tspan>
    </text>
    <text transform="matrix(1, 0, 0, 1, 510.742, 60)">
      <tspan x="-8.032" y="4.5" font-family="Roboto-Bold" font-size="14" fill="#115C81">10</tspan>
    </text>
    <text transform="matrix(1, 0, 0, 1, 480, 90)">
      <tspan x="-8.032" y="4.5" font-family="Roboto-Bold" font-size="14" fill="#115C81">13</tspan>
    </text>
    <text transform="matrix(1, 0, 0, 1, 540, 90)">
      <tspan x="-8.032" y="4.5" font-family="Roboto-Bold" font-size="14" fill="#115C81">11</tspan>
    </text>
    <text transform="matrix(1, 0, 0, 1, 284.133, 133.5)">
      <tspan x="-8.467" y="7.5" font-family="Roboto-Bold" font-size="24" fill="#115C81">N</tspan>
    </text>
    <text transform="matrix(1, 0, 0, 1, 120, 257.5)">
      <tspan x="-8.467" y="7.5" font-family="Roboto-Bold" font-size="24" fill="#115C81">N</tspan>
    </text>
    <text transform="matrix(1, 0, 0, 1, 443.418, 260.167)">
      <tspan x="-6.885" y="7.5" font-family="Roboto-Bold" font-size="24" fill="#115C81">2</tspan>
    </text>
    <text transform="matrix(1, 0, 0, 1, 456.653, 250.5)">
      <tspan x="-6.35" y="6" font-family="Roboto-Bold" font-size="18" fill="#115C81">N</tspan>
    </text>
  </g>
</svg>
