<?xml version="1.0" encoding="UTF-8"?>
<!DOCTYPE svg PUBLIC "-//W3C//DTD SVG 1.1//EN" "http://www.w3.org/Graphics/SVG/1.1/DTD/svg11.dtd">
<svg version="1.1" xmlns="http://www.w3.org/2000/svg" xmlns:xlink="http://www.w3.org/1999/xlink" x="0" y="0" width="495" height="240" viewBox="0, 0, 495, 240">
  <g id="Layer_1">
    <g>
      <path d="M105.5,15.5 L135.5,15.5 L135.5,45.5 L105.5,45.5 L105.5,15.5 z" fill="#FD9361"/>
      <path d="M105.5,15.5 L135.5,15.5 L135.5,45.5 L105.5,45.5 L105.5,15.5 z" fill-opacity="0" stroke="#175D7F" stroke-width="2"/>
    </g>
    <g>
      <path d="M90.5,45.5 L120.5,45.5 L120.5,75.5 L90.5,75.5 L90.5,45.5 z" fill="#9CD0EB"/>
      <path d="M90.5,45.5 L120.5,45.5 L120.5,75.5 L90.5,75.5 L90.5,45.5 z" fill-opacity="0" stroke="#175D7F" stroke-width="2"/>
    </g>
    <g>
      <path d="M120.5,45.5 L150.5,45.5 L150.5,75.5 L120.5,75.5 L120.5,45.5 z" fill="#FD9361"/>
      <path d="M120.5,45.5 L150.5,45.5 L150.5,75.5 L120.5,75.5 L120.5,45.5 z" fill-opacity="0" stroke="#175D7F" stroke-width="2"/>
    </g>
    <g>
      <path d="M75.5,75.5 L105.5,75.5 L105.5,105.5 L75.5,105.5 L75.5,75.5 z" fill="#9CD0EB"/>
      <path d="M75.5,75.5 L105.5,75.5 L105.5,105.5 L75.5,105.5 L75.5,75.5 z" fill-opacity="0" stroke="#175D7F" stroke-width="2"/>
    </g>
    <g>
      <path d="M105.5,75.5 L135.5,75.5 L135.5,105.5 L105.5,105.5 L105.5,75.5 z" fill="#FD9361"/>
      <path d="M105.5,75.5 L135.5,75.5 L135.5,105.5 L105.5,105.5 L105.5,75.5 z" fill-opacity="0" stroke="#175D7F" stroke-width="2"/>
    </g>
    <g>
      <path d="M135.5,75.5 L165.5,75.5 L165.5,105.5 L135.5,105.5 L135.5,75.5 z" fill="#9CD0EB"/>
      <path d="M135.5,75.5 L165.5,75.5 L165.5,105.5 L135.5,105.5 L135.5,75.5 z" fill-opacity="0" stroke="#175D7F" stroke-width="2"/>
    </g>
    <g>
      <path d="M45.5,135.5 L75.5,135.5 L75.5,165.5 L45.5,165.5 L45.5,135.5 z" fill="#9CD0EB"/>
      <path d="M45.5,135.5 L75.5,135.5 L75.5,165.5 L45.5,165.5 L45.5,135.5 z" fill-opacity="0" stroke="#175D7F" stroke-width="2"/>
    </g>
    <g>
      <path d="M60.5,105.5 L90.5,105.5 L90.5,135.5 L60.5,135.5 L60.5,105.5 z" fill="#9CD0EB"/>
      <path d="M60.5,105.5 L90.5,105.5 L90.5,135.5 L60.5,135.5 L60.5,105.5 z" fill-opacity="0" stroke="#175D7F" stroke-width="2"/>
    </g>
    <g>
      <path d="M90.5,105.5 L120.5,105.5 L120.5,135.5 L90.5,135.5 L90.5,105.5 z" fill="#9CD0EB"/>
      <path d="M90.5,105.5 L120.5,105.5 L120.5,135.5 L90.5,135.5 L90.5,105.5 z" fill-opacity="0" stroke="#175D7F" stroke-width="2"/>
    </g>
    <g>
      <path d="M120.5,105.5 L150.5,105.5 L150.5,135.5 L120.5,135.5 L120.5,105.5 z" fill="#FD9361"/>
      <path d="M120.5,105.5 L150.5,105.5 L150.5,135.5 L120.5,135.5 L120.5,105.5 z" fill-opacity="0" stroke="#175D7F" stroke-width="2"/>
    </g>
    <g>
      <path d="M150.5,105.5 L180.5,105.5 L180.5,135.5 L150.5,135.5 L150.5,105.5 z" fill="#9CD0EB"/>
      <path d="M150.5,105.5 L180.5,105.5 L180.5,135.5 L150.5,135.5 L150.5,105.5 z" fill-opacity="0" stroke="#175D7F" stroke-width="2"/>
    </g>
    <g>
      <path d="M30.5,165.5 L60.5,165.5 L60.5,195.5 L30.5,195.5 L30.5,165.5 z" fill="#9CD0EB"/>
      <path d="M30.5,165.5 L60.5,165.5 L60.5,195.5 L30.5,195.5 L30.5,165.5 z" fill-opacity="0" stroke="#175D7F" stroke-width="2"/>
    </g>
    <g>
      <path d="M75.5,135.5 L105.5,135.5 L105.5,165.5 L75.5,165.5 L75.5,135.5 z" fill="#9CD0EB"/>
      <path d="M75.5,135.5 L105.5,135.5 L105.5,165.5 L75.5,165.5 L75.5,135.5 z" fill-opacity="0" stroke="#175D7F" stroke-width="2"/>
    </g>
    <g>
      <path d="M105.5,135.5 L135.5,135.5 L135.5,165.5 L105.5,165.5 L105.5,135.5 z" fill="#FD9361"/>
      <path d="M105.5,135.5 L135.5,135.5 L135.5,165.5 L105.5,165.5 L105.5,135.5 z" fill-opacity="0" stroke="#175D7F" stroke-width="2"/>
    </g>
    <g>
      <path d="M135.5,135.5 L165.5,135.5 L165.5,165.5 L135.5,165.5 L135.5,135.5 z" fill="#9CD0EB"/>
      <path d="M135.5,135.5 L165.5,135.5 L165.5,165.5 L135.5,165.5 L135.5,135.5 z" fill-opacity="0" stroke="#175D7F" stroke-width="2"/>
    </g>
    <g>
      <path d="M165.5,135.5 L195.5,135.5 L195.5,165.5 L165.5,165.5 L165.5,135.5 z" fill="#9CD0EB"/>
      <path d="M165.5,135.5 L195.5,135.5 L195.5,165.5 L165.5,165.5 L165.5,135.5 z" fill-opacity="0" stroke="#175D7F" stroke-width="2"/>
    </g>
    <g>
      <path d="M60.5,165.5 L90.5,165.5 L90.5,195.5 L60.5,195.5 L60.5,165.5 z" fill="#9CD0EB"/>
      <path d="M60.5,165.5 L90.5,165.5 L90.5,195.5 L60.5,195.5 L60.5,165.5 z" fill-opacity="0" stroke="#175D7F" stroke-width="2"/>
    </g>
    <g>
      <path d="M90.5,165.5 L120.5,165.5 L120.5,195.5 L90.5,195.5 L90.5,165.5 z" fill="#9CD0EB"/>
      <path d="M90.5,165.5 L120.5,165.5 L120.5,195.5 L90.5,195.5 L90.5,165.5 z" fill-opacity="0" stroke="#175D7F" stroke-width="2"/>
    </g>
    <g>
      <path d="M120.5,165.5 L150.5,165.5 L150.5,195.5 L120.5,195.5 L120.5,165.5 z" fill="#FD9361"/>
      <path d="M120.5,165.5 L150.5,165.5 L150.5,195.5 L120.5,195.5 L120.5,165.5 z" fill-opacity="0" stroke="#175D7F" stroke-width="2"/>
    </g>
    <g>
      <path d="M150.5,165.5 L180.5,165.5 L180.5,195.5 L150.5,195.5 L150.5,165.5 z" fill="#9CD0EB"/>
      <path d="M150.5,165.5 L180.5,165.5 L180.5,195.5 L150.5,195.5 L150.5,165.5 z" fill-opacity="0" stroke="#175D7F" stroke-width="2"/>
    </g>
    <g>
      <path d="M180.5,165.5 L210.5,165.5 L210.5,195.5 L180.5,195.5 L180.5,165.5 z" fill="#9CD0EB"/>
      <path d="M180.5,165.5 L210.5,165.5 L210.5,195.5 L180.5,195.5 L180.5,165.5 z" fill-opacity="0" stroke="#175D7F" stroke-width="2"/>
    </g>
    <g>
      <path d="M360.5,15.5 L390.5,15.5 L390.5,45.5 L360.5,45.5 L360.5,15.5 z" fill="#FD9361"/>
      <path d="M360.5,15.5 L390.5,15.5 L390.5,45.5 L360.5,45.5 L360.5,15.5 z" fill-opacity="0" stroke="#175D7F" stroke-width="2"/>
    </g>
    <g>
      <path d="M345.5,45.5 L375.5,45.5 L375.5,75.5 L345.5,75.5 L345.5,45.5 z" fill="#9CD0EB"/>
      <path d="M345.5,45.5 L375.5,45.5 L375.5,75.5 L345.5,75.5 L345.5,45.5 z" fill-opacity="0" stroke="#175D7F" stroke-width="2"/>
    </g>
    <g>
      <path d="M375.5,45.5 L405.5,45.5 L405.5,75.5 L375.5,75.5 L375.5,45.5 z" fill="#FD9361"/>
      <path d="M375.5,45.5 L405.5,45.5 L405.5,75.5 L375.5,75.5 L375.5,45.5 z" fill-opacity="0" stroke="#175D7F" stroke-width="2"/>
    </g>
    <g>
      <path d="M330.5,75.5 L360.5,75.5 L360.5,105.5 L330.5,105.5 L330.5,75.5 z" fill="#9CD0EB"/>
      <path d="M330.5,75.5 L360.5,75.5 L360.5,105.5 L330.5,105.5 L330.5,75.5 z" fill-opacity="0" stroke="#175D7F" stroke-width="2"/>
    </g>
    <g>
      <path d="M360.5,75.5 L390.5,75.5 L390.5,105.5 L360.5,105.5 L360.5,75.5 z" fill="#9CD0EB"/>
      <path d="M360.5,75.5 L390.5,75.5 L390.5,105.5 L360.5,105.5 L360.5,75.5 z" fill-opacity="0" stroke="#175D7F" stroke-width="2"/>
    </g>
    <g>
      <path d="M390.5,75.5 L420.5,75.5 L420.5,105.5 L390.5,105.5 L390.5,75.5 z" fill="#FD9361"/>
      <path d="M390.5,75.5 L420.5,75.5 L420.5,105.5 L390.5,105.5 L390.5,75.5 z" fill-opacity="0" stroke="#175D7F" stroke-width="2"/>
    </g>
    <g>
      <path d="M300.5,135.5 L330.5,135.5 L330.5,165.5 L300.5,165.5 L300.5,135.5 z" fill="#9CD0EB"/>
      <path d="M300.5,135.5 L330.5,135.5 L330.5,165.5 L300.5,165.5 L300.5,135.5 z" fill-opacity="0" stroke="#175D7F" stroke-width="2"/>
    </g>
    <g>
      <path d="M315.5,105.5 L345.5,105.5 L345.5,135.5 L315.5,135.5 L315.5,105.5 z" fill="#9CD0EB"/>
      <path d="M315.5,105.5 L345.5,105.5 L345.5,135.5 L315.5,135.5 L315.5,105.5 z" fill-opacity="0" stroke="#175D7F" stroke-width="2"/>
    </g>
    <g>
      <path d="M345.5,105.5 L375.5,105.5 L375.5,135.5 L345.5,135.5 L345.5,105.5 z" fill="#9CD0EB"/>
      <path d="M345.5,105.5 L375.5,105.5 L375.5,135.5 L345.5,135.5 L345.5,105.5 z" fill-opacity="0" stroke="#175D7F" stroke-width="2"/>
    </g>
    <g>
      <path d="M375.5,105.5 L405.5,105.5 L405.5,135.5 L375.5,135.5 L375.5,105.5 z" fill="#9CD0EB"/>
      <path d="M375.5,105.5 L405.5,105.5 L405.5,135.5 L375.5,135.5 L375.5,105.5 z" fill-opacity="0" stroke="#175D7F" stroke-width="2"/>
    </g>
    <g>
      <path d="M405.5,105.5 L435.5,105.5 L435.5,135.5 L405.5,135.5 L405.5,105.5 z" fill="#FD9361"/>
      <path d="M405.5,105.5 L435.5,105.5 L435.5,135.5 L405.5,135.5 L405.5,105.5 z" fill-opacity="0" stroke="#175D7F" stroke-width="2"/>
    </g>
    <g>
      <path d="M285.5,165.5 L315.5,165.5 L315.5,195.5 L285.5,195.5 L285.5,165.5 z" fill="#9CD0EB"/>
      <path d="M285.5,165.5 L315.5,165.5 L315.5,195.5 L285.5,195.5 L285.5,165.5 z" fill-opacity="0" stroke="#175D7F" stroke-width="2"/>
    </g>
    <g>
      <path d="M330.5,135.5 L360.5,135.5 L360.5,165.5 L330.5,165.5 L330.5,135.5 z" fill="#9CD0EB"/>
      <path d="M330.5,135.5 L360.5,135.5 L360.5,165.5 L330.5,165.5 L330.5,135.5 z" fill-opacity="0" stroke="#175D7F" stroke-width="2"/>
    </g>
    <g>
      <path d="M360.5,135.5 L390.5,135.5 L390.5,165.5 L360.5,165.5 L360.5,135.5 z" fill="#9CD0EB"/>
      <path d="M360.5,135.5 L390.5,135.5 L390.5,165.5 L360.5,165.5 L360.5,135.5 z" fill-opacity="0" stroke="#175D7F" stroke-width="2"/>
    </g>
    <g>
      <path d="M390.5,135.5 L420.5,135.5 L420.5,165.5 L390.5,165.5 L390.5,135.5 z" fill="#9CD0EB"/>
      <path d="M390.5,135.5 L420.5,135.5 L420.5,165.5 L390.5,165.5 L390.5,135.5 z" fill-opacity="0" stroke="#175D7F" stroke-width="2"/>
    </g>
    <g>
      <path d="M420.5,135.5 L450.5,135.5 L450.5,165.5 L420.5,165.5 L420.5,135.5 z" fill="#FD9361"/>
      <path d="M420.5,135.5 L450.5,135.5 L450.5,165.5 L420.5,165.5 L420.5,135.5 z" fill-opacity="0" stroke="#175D7F" stroke-width="2"/>
    </g>
    <g>
      <path d="M315.5,165.5 L345.5,165.5 L345.5,195.5 L315.5,195.5 L315.5,165.5 z" fill="#9CD0EB"/>
      <path d="M315.5,165.5 L345.5,165.5 L345.5,195.5 L315.5,195.5 L315.5,165.5 z" fill-opacity="0" stroke="#175D7F" stroke-width="2"/>
    </g>
    <g>
      <path d="M345.5,165.5 L375.5,165.5 L375.5,195.5 L345.5,195.5 L345.5,165.5 z" fill="#9CD0EB"/>
      <path d="M345.5,165.5 L375.5,165.5 L375.5,195.5 L345.5,195.5 L345.5,165.5 z" fill-opacity="0" stroke="#175D7F" stroke-width="2"/>
    </g>
    <g>
      <path d="M375.5,165.5 L405.5,165.5 L405.5,195.5 L375.5,195.5 L375.5,165.5 z" fill="#9CD0EB"/>
      <path d="M375.5,165.5 L405.5,165.5 L405.5,195.5 L375.5,195.5 L375.5,165.5 z" fill-opacity="0" stroke="#175D7F" stroke-width="2"/>
    </g>
    <g>
      <path d="M405.5,165.5 L435.5,165.5 L435.5,195.5 L405.5,195.5 L405.5,165.5 z" fill="#9CD0EB"/>
      <path d="M405.5,165.5 L435.5,165.5 L435.5,195.5 L405.5,195.5 L405.5,165.5 z" fill-opacity="0" stroke="#175D7F" stroke-width="2"/>
    </g>
    <g>
      <path d="M435.5,165.5 L465.5,165.5 L465.5,195.5 L435.5,195.5 L435.5,165.5 z" fill="#FD9361"/>
      <path d="M435.5,165.5 L465.5,165.5 L465.5,195.5 L435.5,195.5 L435.5,165.5 z" fill-opacity="0" stroke="#175D7F" stroke-width="2"/>
    </g>
    <g>
      <path d="M300.5,195.5 L330.5,195.5 L330.5,225.5 L300.5,225.5 L300.5,195.5 z" fill="#9CD0EB"/>
      <path d="M300.5,195.5 L330.5,195.5 L330.5,225.5 L300.5,225.5 L300.5,195.5 z" fill-opacity="0" stroke="#175D7F" stroke-width="2"/>
    </g>
    <g>
      <path d="M330.5,195.5 L360.5,195.5 L360.5,225.5 L330.5,225.5 L330.5,195.5 z" fill="#9CD0EB"/>
      <path d="M330.5,195.5 L360.5,195.5 L360.5,225.5 L330.5,225.5 L330.5,195.5 z" fill-opacity="0" stroke="#175D7F" stroke-width="2"/>
    </g>
    <g>
      <path d="M360.5,195.5 L390.5,195.5 L390.5,225.5 L360.5,225.5 L360.5,195.5 z" fill="#9CD0EB"/>
      <path d="M360.5,195.5 L390.5,195.5 L390.5,225.5 L360.5,225.5 L360.5,195.5 z" fill-opacity="0" stroke="#175D7F" stroke-width="2"/>
    </g>
    <g>
      <path d="M390.5,195.5 L420.5,195.5 L420.5,225.5 L390.5,225.5 L390.5,195.5 z" fill="#9CD0EB"/>
      <path d="M390.5,195.5 L420.5,195.5 L420.5,225.5 L390.5,225.5 L390.5,195.5 z" fill-opacity="0" stroke="#175D7F" stroke-width="2"/>
    </g>
    <g>
      <path d="M450.5,195.5 L480.5,195.5 L480.5,225.5 L450.5,225.5 L450.5,195.5 z" fill="#FD9361"/>
      <path d="M450.5,195.5 L480.5,195.5 L480.5,225.5 L450.5,225.5 L450.5,195.5 z" fill-opacity="0" stroke="#175D7F" stroke-width="2"/>
    </g>
    <g>
      <path d="M420.5,195.5 L450.5,195.5 L450.5,225.5 L420.5,225.5 L420.5,195.5 z" fill="#9CD0EB"/>
      <path d="M420.5,195.5 L450.5,195.5 L450.5,225.5 L420.5,225.5 L420.5,195.5 z" fill-opacity="0" stroke="#175D7F" stroke-width="2"/>
    </g>
    <g>
      <path d="M270.5,195.5 L300.5,195.5 L300.5,225.5 L270.5,225.5 L270.5,195.5 z" fill="#9CD0EB"/>
      <path d="M270.5,195.5 L300.5,195.5 L300.5,225.5 L270.5,225.5 L270.5,195.5 z" fill-opacity="0" stroke="#175D7F" stroke-width="2"/>
    </g>
    <g>
      <path d="M45.5,195.5 L75.5,195.5 L75.5,225.5 L45.5,225.5 L45.5,195.5 z" fill="#9CD0EB"/>
      <path d="M45.5,195.5 L75.5,195.5 L75.5,225.5 L45.5,225.5 L45.5,195.5 z" fill-opacity="0" stroke="#175D7F" stroke-width="2"/>
    </g>
    <g>
      <path d="M75.5,195.5 L105.5,195.5 L105.5,225.5 L75.5,225.5 L75.5,195.5 z" fill="#9CD0EB"/>
      <path d="M75.5,195.5 L105.5,195.5 L105.5,225.5 L75.5,225.5 L75.5,195.5 z" fill-opacity="0" stroke="#175D7F" stroke-width="2"/>
    </g>
    <g>
      <path d="M105.5,195.5 L135.5,195.5 L135.5,225.5 L105.5,225.5 L105.5,195.5 z" fill="#9CD0EB"/>
      <path d="M105.5,195.5 L135.5,195.5 L135.5,225.5 L105.5,225.5 L105.5,195.5 z" fill-opacity="0" stroke="#175D7F" stroke-width="2"/>
    </g>
    <g>
      <path d="M135.5,195.5 L165.5,195.5 L165.5,225.5 L135.5,225.5 L135.5,195.5 z" fill="#FD9361"/>
      <path d="M135.5,195.5 L165.5,195.5 L165.5,225.5 L135.5,225.5 L135.5,195.5 z" fill-opacity="0" stroke="#175D7F" stroke-width="2"/>
    </g>
    <g>
      <path d="M165.5,195.5 L195.5,195.5 L195.5,225.5 L165.5,225.5 L165.5,195.5 z" fill="#9CD0EB"/>
      <path d="M165.5,195.5 L195.5,195.5 L195.5,225.5 L165.5,225.5 L165.5,195.5 z" fill-opacity="0" stroke="#175D7F" stroke-width="2"/>
    </g>
    <g>
      <path d="M195.5,195.5 L225.5,195.5 L225.5,225.5 L195.5,225.5 L195.5,195.5 z" fill="#9CD0EB"/>
      <path d="M195.5,195.5 L225.5,195.5 L225.5,225.5 L195.5,225.5 L195.5,195.5 z" fill-opacity="0" stroke="#175D7F" stroke-width="2"/>
    </g>
    <g>
      <path d="M15.5,195.5 L45.5,195.5 L45.5,225.5 L15.5,225.5 L15.5,195.5 z" fill="#9CD0EB"/>
      <path d="M15.5,195.5 L45.5,195.5 L45.5,225.5 L15.5,225.5 L15.5,195.5 z" fill-opacity="0" stroke="#175D7F" stroke-width="2"/>
    </g>
    <text transform="matrix(1, 0, 0, 1, 375.5, 30)">
      <tspan x="-8.532" y="9" font-family="Roboto-Bold" font-size="28" fill="#115C81">1</tspan>
    </text>
    <text transform="matrix(1, 0, 0, 1, 465.5, 210.5)">
      <tspan x="-8.532" y="9" font-family="Roboto-Bold" font-size="28" fill="#115C81">9</tspan>
    </text>
    <text transform="matrix(1, 0, 0, 1, 375.5, 90)">
      <tspan x="-8.532" y="9" font-family="Roboto-Bold" font-size="28" fill="#115C81">2</tspan>
    </text>
    <text transform="matrix(1, 0, 0, 1, 75.5, 120)">
      <tspan x="-8.532" y="9" font-family="Roboto-Bold" font-size="28" fill="#115C81">3</tspan>
    </text>
    <text transform="matrix(1, 0, 0, 1, 165.5, 120)">
      <tspan x="-8.532" y="9" font-family="Roboto-Bold" font-size="28" fill="#115C81">4</tspan>
    </text>
    <text transform="matrix(1, 0, 0, 1, 135.5, 120)">
      <tspan x="-8.532" y="9" font-family="Roboto-Bold" font-size="28" fill="#115C81">5</tspan>
    </text>
    <text transform="matrix(1, 0, 0, 1, 60.5, 210)">
      <tspan x="-8.532" y="9" font-family="Roboto-Bold" font-size="28" fill="#115C81">6</tspan>
    </text>
    <text transform="matrix(1, 0, 0, 1, 120.5, 30)">
      <tspan x="-8.532" y="9" font-family="Roboto-Bold" font-size="28" fill="#115C81">7</tspan>
    </text>
    <text transform="matrix(1, 0, 0, 1, 345.5, 90)">
      <tspan x="-8.532" y="9" font-family="Roboto-Bold" font-size="28" fill="#115C81">1</tspan>
    </text>
    <text transform="matrix(1, 0, 0, 1, 450.5, 180)">
      <tspan x="-8.532" y="9" font-family="Roboto-Bold" font-size="28" fill="#115C81">1</tspan>
    </text>
    <text transform="matrix(1, 0, 0, 1, 435.5, 150)">
      <tspan x="-8.532" y="9" font-family="Roboto-Bold" font-size="28" fill="#115C81">1</tspan>
    </text>
    <text transform="matrix(1, 0, 0, 1, 420.5, 120)">
      <tspan x="-8.532" y="9" font-family="Roboto-Bold" font-size="28" fill="#115C81">1</tspan>
    </text>
    <text transform="matrix(1, 0, 0, 1, 405.5, 90)">
      <tspan x="-8.532" y="9" font-family="Roboto-Bold" font-size="28" fill="#115C81">1</tspan>
    </text>
    <text transform="matrix(1, 0, 0, 1, 390.5, 60)">
      <tspan x="-8.532" y="9" font-family="Roboto-Bold" font-size="28" fill="#115C81">1</tspan>
    </text>
    <text transform="matrix(1, 0, 0, 1, 315.5, 210)">
      <tspan x="-8.532" y="9" font-family="Roboto-Bold" font-size="28" fill="#115C81">2</tspan>
    </text>
    <text transform="matrix(1, 0, 0, 1, 330.5, 180)">
      <tspan x="-8.532" y="9" font-family="Roboto-Bold" font-size="28" fill="#115C81">2</tspan>
    </text>
    <text transform="matrix(1, 0, 0, 1, 360.5, 120)">
      <tspan x="-8.532" y="9" font-family="Roboto-Bold" font-size="28" fill="#115C81">2</tspan>
    </text>
    <text transform="matrix(1, 0, 0, 1, 345.5, 150)">
      <tspan x="-8.532" y="9" font-family="Roboto-Bold" font-size="28" fill="#115C81">2</tspan>
    </text>
    <text transform="matrix(1, 0, 0, 1, 360.5, 60)">
      <tspan x="-8.532" y="9" font-family="Roboto-Bold" font-size="28" fill="#115C81">2</tspan>
    </text>
    <text transform="matrix(1, 0, 0, 1, 420.5, 180)">
      <tspan x="-8.532" y="9" font-family="Roboto-Bold" font-size="28" fill="#115C81">1</tspan>
    </text>
    <text transform="matrix(1, 0, 0, 1, 405.5, 150)">
      <tspan x="-8.532" y="9" font-family="Roboto-Bold" font-size="28" fill="#115C81">1</tspan>
    </text>
    <text transform="matrix(1, 0, 0, 1, 390.5, 120)">
      <tspan x="-8.532" y="9" font-family="Roboto-Bold" font-size="28" fill="#115C81">1</tspan>
    </text>
    <text transform="matrix(1, 0, 0, 1, 375.5, 150)">
      <tspan x="-8.532" y="9" font-family="Roboto-Bold" font-size="28" fill="#115C81">1</tspan>
    </text>
    <text transform="matrix(1, 0, 0, 1, 360.5, 180)">
      <tspan x="-8.532" y="9" font-family="Roboto-Bold" font-size="28" fill="#115C81">1</tspan>
    </text>
    <text transform="matrix(1, 0, 0, 1, 345.5, 210)">
      <tspan x="-8.532" y="9" font-family="Roboto-Bold" font-size="28" fill="#115C81">1</tspan>
    </text>
    <text transform="matrix(1, 0, 0, 1, 285.5, 210)">
      <tspan x="-8.532" y="9" font-family="Roboto-Bold" font-size="28" fill="#115C81">1</tspan>
    </text>
    <text transform="matrix(1, 0, 0, 1, 300.5, 180)">
      <tspan x="-8.532" y="9" font-family="Roboto-Bold" font-size="28" fill="#115C81">1</tspan>
    </text>
    <text transform="matrix(1, 0, 0, 1, 315.5, 150)">
      <tspan x="-8.532" y="9" font-family="Roboto-Bold" font-size="28" fill="#115C81">1</tspan>
    </text>
    <text transform="matrix(1, 0, 0, 1, 435.5, 210.5)">
      <tspan x="-8.532" y="9" font-family="Roboto-Bold" font-size="28" fill="#115C81">1</tspan>
    </text>
    <text transform="matrix(1, 0, 0, 1, 330.5, 120)">
      <tspan x="-8.532" y="9" font-family="Roboto-Bold" font-size="28" fill="#115C81">1</tspan>
    </text>
    <text transform="matrix(1, 0, 0, 1, 150.5, 90)">
      <tspan x="-8.532" y="9" font-family="Roboto-Bold" font-size="28" fill="#115C81">1</tspan>
    </text>
    <text transform="matrix(1, 0, 0, 1, 375.5, 210)">
      <tspan x="-8.532" y="9" font-family="Roboto-Bold" font-size="28" fill="#115C81">1</tspan>
    </text>
    <text transform="matrix(1, 0, 0, 1, 405.5, 210)">
      <tspan x="-8.532" y="9" font-family="Roboto-Bold" font-size="28" fill="#115C81">1</tspan>
    </text>
    <text transform="matrix(1, 0, 0, 1, 390.5, 180)">
      <tspan x="-8.532" y="9" font-family="Roboto-Bold" font-size="28" fill="#115C81">1</tspan>
    </text>
    <text transform="matrix(1, 0, 0, 1, 105.5, 60)">
      <tspan x="-8.532" y="9" font-family="Roboto-Bold" font-size="28" fill="#115C81">2</tspan>
    </text>
    <text transform="matrix(1, 0, 0, 1, 135.5, 60)">
      <tspan x="-8.532" y="9" font-family="Roboto-Bold" font-size="28" fill="#115C81">3</tspan>
    </text>
    <text transform="matrix(1, 0, 0, 1, 120.5, 90)">
      <tspan x="-8.532" y="9" font-family="Roboto-Bold" font-size="28" fill="#115C81">3</tspan>
    </text>
    <text transform="matrix(1, 0, 0, 1, 90.5, 90)">
      <tspan x="-8.532" y="9" font-family="Roboto-Bold" font-size="28" fill="#115C81">3</tspan>
    </text>
    <text transform="matrix(1, 0, 0, 1, 105.5, 120)">
      <tspan x="-8.532" y="9" font-family="Roboto-Bold" font-size="28" fill="#115C81">1</tspan>
    </text>
    <text transform="matrix(1, 0, 0, 1, 90.5, 150)">
      <tspan x="-8.532" y="9" font-family="Roboto-Bold" font-size="28" fill="#115C81">1</tspan>
    </text>
    <text transform="matrix(1, 0, 0, 1, 60.5, 150)">
      <tspan x="-8.532" y="9" font-family="Roboto-Bold" font-size="28" fill="#115C81">3</tspan>
    </text>
    <text transform="matrix(1, 0, 0, 1, 150.5, 150)">
      <tspan x="-8.532" y="9" font-family="Roboto-Bold" font-size="28" fill="#115C81">1</tspan>
    </text>
    <text transform="matrix(1, 0, 0, 1, 120.5, 150)">
      <tspan x="-8.532" y="9" font-family="Roboto-Bold" font-size="28" fill="#115C81">3</tspan>
    </text>
    <text transform="matrix(1, 0, 0, 1, 180.5, 150)">
      <tspan x="-8.532" y="9" font-family="Roboto-Bold" font-size="28" fill="#115C81">3</tspan>
    </text>
    <text transform="matrix(1, 0, 0, 1, 195.5, 180)">
      <tspan x="-8.532" y="9" font-family="Roboto-Bold" font-size="28" fill="#115C81">2</tspan>
    </text>
    <text transform="matrix(1, 0, 0, 1, 165.5, 180)">
      <tspan x="-8.532" y="9" font-family="Roboto-Bold" font-size="28" fill="#115C81">2</tspan>
    </text>
    <text transform="matrix(1, 0, 0, 1, 135.5, 180)">
      <tspan x="-8.532" y="9" font-family="Roboto-Bold" font-size="28" fill="#115C81">2</tspan>
    </text>
    <text transform="matrix(1, 0, 0, 1, 105.5, 180)">
      <tspan x="-8.532" y="9" font-family="Roboto-Bold" font-size="28" fill="#115C81">2</tspan>
    </text>
    <text transform="matrix(1, 0, 0, 1, 75.5, 180)">
      <tspan x="-8.532" y="9" font-family="Roboto-Bold" font-size="28" fill="#115C81">2</tspan>
    </text>
    <text transform="matrix(1, 0, 0, 1, 45.5, 180)">
      <tspan x="-8.532" y="9" font-family="Roboto-Bold" font-size="28" fill="#115C81">2</tspan>
    </text>
    <text transform="matrix(1, 0, 0, 1, 30.5, 210)">
      <tspan x="-8.532" y="9" font-family="Roboto-Bold" font-size="28" fill="#115C81">5</tspan>
    </text>
    <text transform="matrix(1, 0, 0, 1, 90.5, 210)">
      <tspan x="-8.532" y="9" font-family="Roboto-Bold" font-size="28" fill="#115C81">4</tspan>
    </text>
    <text transform="matrix(1, 0, 0, 1, 120.5, 210)">
      <tspan x="-8.532" y="9" font-family="Roboto-Bold" font-size="28" fill="#115C81">5</tspan>
    </text>
    <text transform="matrix(1, 0, 0, 1, 150.5, 210)">
      <tspan x="-8.532" y="9" font-family="Roboto-Bold" font-size="28" fill="#115C81">6</tspan>
    </text>
    <text transform="matrix(1, 0, 0, 1, 180.5, 210)">
      <tspan x="-8.532" y="9" font-family="Roboto-Bold" font-size="28" fill="#115C81">4</tspan>
    </text>
    <text transform="matrix(1, 0, 0, 1, 210.5, 210)">
      <tspan x="-8.532" y="9" font-family="Roboto-Bold" font-size="28" fill="#115C81">3</tspan>
    </text>
  </g>
</svg>
